<svg width="56" height="56" viewBox="0 0 56 56" fill="none" xmlns="http://www.w3.org/2000/svg">
<path opacity="0.25" d="M28 33.1216C27.5893 33.1216 27.188 33.0142 26.8333 32.8112L5.83334 20.6826C5.47866 20.4778 5.18413 20.1832 4.97936 19.8285C4.77458 19.4738 4.66678 19.0715 4.66678 18.6619C4.66678 18.2523 4.77458 17.85 4.97936 17.4953C5.18413 17.1406 5.47866 16.846 5.83334 16.6412L26.8333 4.52191C27.5567 4.10891 28.4433 4.10891 29.1667 4.52191L50.1667 16.6412C50.5214 16.846 50.8159 17.1406 51.0207 17.4953C51.2254 17.85 51.3332 18.2523 51.3332 18.6619C51.3332 19.0715 51.2254 19.4738 51.0207 19.8285C50.8159 20.1832 50.5214 20.4778 50.1667 20.6826L29.1667 32.8112C28.8117 33.015 28.4094 33.122 28 33.1216Z" fill="#2D76F9"/>
<path opacity="0.5" d="M50.1667 25.9746L45.584 23.3286L29.1667 32.8113C28.4433 33.2266 27.5567 33.2266 26.8333 32.8113L10.416 23.3286L5.83334 25.9746C5.47866 26.1794 5.18413 26.474 4.97936 26.8287C4.77458 27.1834 4.66678 27.5857 4.66678 27.9953C4.66678 28.4048 4.77458 28.8072 4.97936 29.1619C5.18413 29.5166 5.47866 29.8111 5.83334 30.0159L26.8333 42.1446C27.5567 42.5599 28.4433 42.5599 29.1667 42.1446L50.1667 30.0159C50.5214 29.8111 50.8159 29.5166 51.0207 29.1619C51.2254 28.8072 51.3332 28.4048 51.3332 27.9953C51.3332 27.5857 51.2254 27.1834 51.0207 26.8287C50.8159 26.474 50.5214 26.1794 50.1667 25.9746V25.9746Z" fill="#2D76F9"/>
<path d="M50.1667 35.3079L45.584 32.6619L29.1667 42.1445C28.4433 42.5599 27.5567 42.5599 26.8333 42.1445L10.416 32.6619L5.83334 35.3079C5.47866 35.5127 5.18413 35.8072 4.97936 36.1619C4.77458 36.5166 4.66678 36.919 4.66678 37.3285C4.66678 37.7381 4.77458 38.1404 4.97936 38.4951C5.18413 38.8498 5.47866 39.1444 5.83334 39.3492L26.8333 51.4779C27.5567 51.8932 28.4433 51.8932 29.1667 51.4779L50.1667 39.3492C50.5214 39.1444 50.8159 38.8498 51.0207 38.4951C51.2254 38.1404 51.3332 37.7381 51.3332 37.3285C51.3332 36.919 51.2254 36.5166 51.0207 36.1619C50.8159 35.8072 50.5214 35.5127 50.1667 35.3079V35.3079Z" fill="#2D76F9"/>
</svg>
