<svg width="36" height="36" viewBox="0 0 36 36" fill="none" xmlns="http://www.w3.org/2000/svg">
<path d="M33 8.69404C31.8766 9.19201 30.6848 9.51864 29.4645 9.66304C30.7503 8.89422 31.7126 7.684 32.172 6.25804C30.9639 6.97575 29.6418 7.48107 28.263 7.75204C27.4182 6.85268 26.3227 6.22788 25.1185 5.95865C23.9143 5.68943 22.657 5.78821 21.5096 6.24218C20.3622 6.69615 19.3777 7.48437 18.6837 8.50463C17.9897 9.52489 17.6183 10.7301 17.6175 11.964C17.6167 12.436 17.6695 12.9065 17.775 13.3665C15.3281 13.2437 12.9345 12.6077 10.7493 11.4999C8.56413 10.3921 6.63632 8.83715 5.091 6.93604C4.30389 8.29108 4.06275 9.89514 4.41666 11.4217C4.77058 12.9483 5.69294 14.2826 6.996 15.153C6.01789 15.1231 5.06119 14.8592 4.206 14.3835V14.4615C4.20624 15.8827 4.69809 17.2601 5.59812 18.36C6.49815 19.4599 7.75095 20.2146 9.144 20.496C8.61553 20.6397 8.07016 20.7119 7.5225 20.7105C7.13348 20.7107 6.74529 20.6746 6.363 20.6025C6.75608 21.8253 7.52139 22.8946 8.55197 23.6611C9.58255 24.4276 10.8269 24.8529 12.111 24.8775C9.53013 26.8975 6.25412 27.8128 3 27.423C5.81408 29.232 9.08962 30.1923 12.435 30.189C14.7387 30.2046 17.0224 29.7623 19.1537 28.8879C21.285 28.0134 23.2213 26.7242 24.8502 25.0952C26.4791 23.4662 27.7681 21.5297 28.6424 19.3984C29.5167 17.267 29.9587 14.9832 29.943 12.6795C29.943 12.4125 29.9365 12.1475 29.9235 11.8845C31.1303 11.0121 32.1721 9.93177 33 8.69404Z" fill="#2D76F9"/>
</svg>
